solid Vision Belt Power Supply Cover - Final
facet normal -1.0 0.0 0.0
outer loop
vertex 0.0 0.0 18.0
vertex 0.0 4.0 12.5
vertex 0.0 0.0 0.0
endloop
endfacet
facet normal -1.0 0.0 0.0
outer loop
vertex 0.0 4.0 12.5
vertex 0.0 0.0 18.0
vertex 0.0 38.0 18.0
endloop
endfacet
facet normal -1.0 0.0 0.0
outer loop
vertex 0.0 4.0 12.5
vertex 0.0 38.0 18.0
vertex 0.0 26.0 12.5
endloop
endfacet
facet normal -1.0 0.0 0.0
outer loop
vertex 0.0 26.0 12.5
vertex 0.0 38.0 18.0
vertex 0.0 26.0 8.8
endloop
endfacet
facet normal -1.0 0.0 0.0
outer loop
vertex 0.0 0.0 0.0
vertex 0.0 4.0 8.8
vertex 0.0 38.0 7.04991620636974e-016
endloop
endfacet
facet normal -1.0 0.0 0.0
outer loop
vertex 0.0 4.0 8.8
vertex 0.0 0.0 0.0
vertex 0.0 4.0 12.5
endloop
endfacet
facet normal -1.0 0.0 0.0
outer loop
vertex 0.0 38.0 7.04991620636974e-016
vertex 0.0 4.0 8.8
vertex 0.0 26.0 8.8
endloop
endfacet
facet normal -1.0 0.0 0.0
outer loop
vertex 0.0 38.0 7.04991620636974e-016
vertex 0.0 26.0 8.8
vertex 0.0 38.0 18.0
endloop
endfacet
facet normal 1.0 -0.0 -0.0
outer loop
vertex 110.0 0.0 0.0
vertex 110.0 4.0 8.8
vertex 110.0 0.0 18.0
endloop
endfacet
facet normal 1.0 -0.0 -0.0
outer loop
vertex 110.0 4.0 8.8
vertex 110.0 0.0 0.0
vertex 110.0 38.0 0.0
endloop
endfacet
facet normal 1.0 -0.0 -0.0
outer loop
vertex 110.0 4.0 8.8
vertex 110.0 38.0 0.0
vertex 110.0 26.0 8.8
endloop
endfacet
facet normal 1.0 -0.0 -0.0
outer loop
vertex 110.0 26.0 8.8
vertex 110.0 38.0 0.0
vertex 110.0 26.0 12.5
endloop
endfacet
facet normal 1.0 -0.0 -0.0
outer loop
vertex 110.0 0.0 18.0
vertex 110.0 4.0 12.5
vertex 110.0 38.0 18.0
endloop
endfacet
facet normal 1.0 -0.0 -0.0
outer loop
vertex 110.0 4.0 12.5
vertex 110.0 0.0 18.0
vertex 110.0 4.0 8.8
endloop
endfacet
facet normal 1.0 -0.0 -0.0
outer loop
vertex 110.0 38.0 18.0
vertex 110.0 4.0 12.5
vertex 110.0 26.0 12.5
endloop
endfacet
facet normal 1.0 -0.0 -0.0
outer loop
vertex 110.0 38.0 18.0
vertex 110.0 26.0 12.5
vertex 110.0 38.0 0.0
endloop
endfacet
facet normal -3.44977601929455e-018 5.30492183226033e-018 -1.0
outer loop
vertex 2.0 40.0 7.04991620636974e-016
vertex 5.06814834742186 10.517638090205 3.52495810318487e-015
vertex 5.0 10.0 3.52495810318487e-015
endloop
endfacet
facet normal -3.44977601929455e-018 5.30492183226033e-018 -1.0
outer loop
vertex 5.06814834742186 10.517638090205 3.52495810318487e-015
vertex 2.0 40.0 7.04991620636974e-016
vertex 5.15224093497743 10.7653668647302 3.52495810318487e-015
endloop
endfacet
facet normal -3.44977601929455e-018 5.30492183226033e-018 -1.0
outer loop
vertex 5.15224093497743 10.7653668647302 3.52495810318487e-015
vertex 2.0 40.0 7.04991620636974e-016
vertex 5.26794919243112 11.0 3.52495810318487e-015
endloop
endfacet
facet normal -3.44977601929455e-018 5.30492183226033e-018 -1.0
outer loop
vertex 5.26794919243112 11.0 3.52495810318487e-015
vertex 2.0 40.0 7.04991620636974e-016
vertex 5.41329331941753 11.2175228580174 3.52495810318487e-015
endloop
endfacet
facet normal -3.44977601929455e-018 5.30492183226033e-018 -1.0
outer loop
vertex 5.41329331941753 11.2175228580174 3.52495810318487e-015
vertex 2.0 40.0 7.04991620636974e-016
vertex 5.58578643762691 11.4142135623731 3.52495810318487e-015
endloop
endfacet
facet normal -3.44977601929455e-018 5.30492183226033e-018 -1.0
outer loop
vertex 5.58578643762691 11.4142135623731 3.52495810318487e-015
vertex 2.0 40.0 7.04991620636974e-016
vertex 5.78247714198256 11.5867066805825 3.52495810318487e-015
endloop
endfacet
facet normal -3.44977601929455e-018 5.30492183226033e-018 -1.0
outer loop
vertex 5.78247714198256 11.5867066805825 3.52495810318487e-015
vertex 2.0 40.0 7.04991620636974e-016
vertex 6.0 11.7320508075689 3.52495810318487e-015
endloop
endfacet
facet normal -3.44977601929455e-018 5.30492183226033e-018 -1.0
outer loop
vertex 6.0 11.7320508075689 3.52495810318487e-015
vertex 2.0 40.0 7.04991620636974e-016
vertex 6.23463313526982 11.8477590650226 3.52495810318487e-015
endloop
endfacet
facet normal -3.44977601929455e-018 5.30492183226033e-018 -1.0
outer loop
vertex 6.23463313526982 11.8477590650226 3.52495810318487e-015
vertex 2.0 40.0 7.04991620636974e-016
vertex 6.48236190979496 11.9318516525781 3.52495810318487e-015
endloop
endfacet
facet normal -3.44977601929455e-018 5.30492183226033e-018 -1.0
outer loop
vertex 6.48236190979496 11.9318516525781 3.52495810318487e-015
vertex 2.0 40.0 7.04991620636974e-016
vertex 108.0 40.0 0.0
endloop
endfacet
facet normal -3.44977601929455e-018 5.30492183226033e-018 -1.0
outer loop
vertex 6.48236190979496 11.9318516525781 3.52495810318487e-015
vertex 108.0 40.0 0.0
vertex 7.0 12.0 3.52495810318487e-015
endloop
endfacet
facet normal -3.44977601929455e-018 5.30492183226033e-018 -1.0
outer loop
vertex 7.0 12.0 3.52495810318487e-015
vertex 108.0 40.0 0.0
vertex 88.0 12.0 3.52495810318487e-015
endloop
endfacet
facet normal -3.44977601929455e-018 5.30492183226033e-018 -1.0
outer loop
vertex 88.0 12.0 3.52495810318487e-015
vertex 108.0 40.0 0.0
vertex 88.5176380902051 11.9318516525781 3.52495810318487e-015
endloop
endfacet
facet normal -3.44977601929455e-018 5.30492183226033e-018 -1.0
outer loop
vertex 88.5176380902051 11.9318516525781 3.52495810318487e-015
vertex 108.0 40.0 0.0
vertex 88.7653668647302 11.8477590650226 3.52495810318487e-015
endloop
endfacet
facet normal -3.44977601929455e-018 5.30492183226033e-018 -1.0
outer loop
vertex 88.7653668647302 11.8477590650226 3.52495810318487e-015
vertex 108.0 40.0 0.0
vertex 89.0 11.7320508075689 3.52495810318487e-015
endloop
endfacet
facet normal -3.44977601929455e-018 5.30492183226033e-018 -1.0
outer loop
vertex 89.0 11.7320508075689 3.52495810318487e-015
vertex 108.0 40.0 0.0
vertex 89.2175228580174 11.5867066805825 3.52495810318487e-015
endloop
endfacet
facet normal -3.44977601929455e-018 5.30492183226033e-018 -1.0
outer loop
vertex 89.2175228580174 11.5867066805825 3.52495810318487e-015
vertex 108.0 40.0 0.0
vertex 89.4142135623731 11.4142135623731 3.52495810318487e-015
endloop
endfacet
facet normal -3.44977601929455e-018 5.30492183226033e-018 -1.0
outer loop
vertex 89.4142135623731 11.4142135623731 3.52495810318487e-015
vertex 108.0 40.0 0.0
vertex 89.5867066805825 11.2175228580174 3.52495810318487e-015
endloop
endfacet
facet normal -3.44977601929455e-018 5.30492183226033e-018 -1.0
outer loop
vertex 89.5867066805825 11.2175228580174 3.52495810318487e-015
vertex 108.0 40.0 0.0
vertex 89.7320508075689 11.0 3.52495810318487e-015
endloop
endfacet
facet normal -3.44977601929455e-018 5.30492183226033e-018 -1.0
outer loop
vertex 89.7320508075689 11.0 3.52495810318487e-015
vertex 108.0 40.0 0.0
vertex 89.8477590650226 10.7653668647302 3.52495810318487e-015
endloop
endfacet
facet normal -3.44977601929455e-018 5.30492183226033e-018 -1.0
outer loop
vertex 89.8477590650226 10.7653668647302 3.52495810318487e-015
vertex 108.0 40.0 0.0
vertex 89.9318516525781 10.517638090205 3.52495810318487e-015
endloop
endfacet
facet normal -3.44977601929455e-018 5.30492183226033e-018 -1.0
outer loop
vertex 89.9318516525781 10.517638090205 3.52495810318487e-015
vertex 108.0 40.0 0.0
vertex 90.0 10.0 3.52495810318487e-015
endloop
endfacet
facet normal -3.44977601929455e-018 5.30492183226033e-018 -1.0
outer loop
vertex 90.0 10.0 3.52495810318487e-015
vertex 108.0 40.0 0.0
vertex 90.0 9.0 3.52495810318487e-015
endloop
endfacet
facet normal -3.44977601929455e-018 5.30492183226033e-018 -1.0
outer loop
vertex 0.0681483474218632 38.517638090205 7.04991620636974e-016
vertex 0.0 0.0 0.0
vertex 0.0 38.0 7.04991620636974e-016
endloop
endfacet
facet normal -3.44977601929455e-018 5.30492183226033e-018 -1.0
outer loop
vertex 0.0 0.0 0.0
vertex 0.0681483474218632 38.517638090205 7.04991620636974e-016
vertex 5.06814834742187 8.48236190979496 3.52495810318487e-015
endloop
endfacet
facet normal -3.44977601929455e-018 5.30492183226033e-018 -1.0
outer loop
vertex 0.0 0.0 0.0
vertex 5.06814834742187 8.48236190979496 3.52495810318487e-015
vertex 5.15224093497743 8.23463313526982 3.52495810318487e-015
endloop
endfacet
facet normal -3.44977601929455e-018 5.30492183226033e-018 -1.0
outer loop
vertex 0.0 0.0 0.0
vertex 5.15224093497743 8.23463313526982 3.52495810318487e-015
vertex 5.26794919243113 8.0 3.52495810318487e-015
endloop
endfacet
facet normal -3.44977601929455e-018 5.30492183226033e-018 -1.0
outer loop
vertex 0.0 0.0 0.0
vertex 5.26794919243113 8.0 3.52495810318487e-015
vertex 5.41329331941754 7.78247714198256 3.52495810318487e-015
endloop
endfacet
facet normal -3.44977601929455e-018 5.30492183226033e-018 -1.0
outer loop
vertex 0.0 0.0 0.0
vertex 5.41329331941754 7.78247714198256 3.52495810318487e-015
vertex 5.58578643762691 7.58578643762691 3.52495810318487e-015
endloop
endfacet
facet normal -3.44977601929455e-018 5.30492183226033e-018 -1.0
outer loop
vertex 0.0 0.0 0.0
vertex 5.58578643762691 7.58578643762691 3.52495810318487e-015
vertex 5.78247714198257 7.41329331941753 3.52495810318487e-015
endloop
endfacet
facet normal -3.44977601929455e-018 5.30492183226033e-018 -1.0
outer loop
vertex 0.0 0.0 0.0
vertex 5.78247714198257 7.41329331941753 3.52495810318487e-015
vertex 6.00000000000001 7.26794919243112 3.52495810318487e-015
endloop
endfacet
facet normal -3.44977601929455e-018 5.30492183226033e-018 -1.0
outer loop
vertex 0.0 0.0 0.0
vertex 6.00000000000001 7.26794919243112 3.52495810318487e-015
vertex 6.23463313526983 7.15224093497743 3.52495810318487e-015
endloop
endfacet
facet normal -3.44977601929455e-018 5.30492183226033e-018 -1.0
outer loop
vertex 0.0 0.0 0.0
vertex 6.23463313526983 7.15224093497743 3.52495810318487e-015
vertex 6.48236190979497 7.06814834742186 3.52495810318487e-015
endloop
endfacet
facet normal -3.44977601929455e-018 5.30492183226033e-018 -1.0
outer loop
vertex 0.0 0.0 0.0
vertex 6.48236190979497 7.06814834742186 3.52495810318487e-015
vertex 7.00000000000001 7.0 3.52495810318487e-015
endloop
endfacet
facet normal -3.44977601929455e-018 5.30492183226033e-018 -1.0
outer loop
vertex 0.0 0.0 0.0
vertex 7.00000000000001 7.0 3.52495810318487e-015
vertex 110.0 0.0 0.0
endloop
endfacet
facet normal -3.44977601929455e-018 5.30492183226033e-018 -1.0
outer loop
vertex 5.06814834742187 8.48236190979496 3.52495810318487e-015
vertex 0.0681483474218632 38.517638090205 7.04991620636974e-016
vertex 0.267949192431122 39.0 7.04991620636974e-016
endloop
endfacet
facet normal -3.44977601929455e-018 5.30492183226033e-018 -1.0
outer loop
vertex 5.06814834742187 8.48236190979496 3.52495810318487e-015
vertex 0.267949192431122 39.0 7.04991620636974e-016
vertex 0.585786437626904 39.4142135623731 7.04991620636974e-016
endloop
endfacet
facet normal -3.44977601929455e-018 5.30492183226033e-018 -1.0
outer loop
vertex 5.06814834742187 8.48236190979496 3.52495810318487e-015
vertex 0.585786437626904 39.4142135623731 7.04991620636974e-016
vertex 5.0 9.0 3.52495810318487e-015
endloop
endfacet
facet normal -3.44977601929455e-018 5.30492183226033e-018 -1.0
outer loop
vertex 5.0 9.0 3.52495810318487e-015
vertex 0.585786437626904 39.4142135623731 7.04991620636974e-016
vertex 0.999999999999999 39.7320508075689 7.04991620636974e-016
endloop
endfacet
facet normal -3.44977601929455e-018 5.30492183226033e-018 -1.0
outer loop
vertex 5.0 9.0 3.52495810318487e-015
vertex 0.999999999999999 39.7320508075689 7.04991620636974e-016
vertex 1.48236190979496 39.9318516525781 7.04991620636974e-016
endloop
endfacet
facet normal -3.44977601929455e-018 5.30492183226033e-018 -1.0
outer loop
vertex 5.0 9.0 3.52495810318487e-015
vertex 1.48236190979496 39.9318516525781 7.04991620636974e-016
vertex 2.0 40.0 7.04991620636974e-016
endloop
endfacet
facet normal -3.44977601929455e-018 5.30492183226033e-018 -1.0
outer loop
vertex 5.0 9.0 3.52495810318487e-015
vertex 2.0 40.0 7.04991620636974e-016
vertex 5.0 10.0 3.52495810318487e-015
endloop
endfacet
facet normal -3.44977601929455e-018 5.30492183226033e-018 -1.0
outer loop
vertex 110.0 0.0 0.0
vertex 7.00000000000001 7.0 3.52495810318487e-015
vertex 88.0 7.0 3.52495810318487e-015
endloop
endfacet
facet normal -3.44977601929455e-018 5.30492183226033e-018 -1.0
outer loop
vertex 110.0 0.0 0.0
vertex 88.0 7.0 3.52495810318487e-015
vertex 88.5176380902051 7.06814834742186 3.52495810318487e-015
endloop
endfacet
facet normal -3.44977601929455e-018 5.30492183226033e-018 -1.0
outer loop
vertex 110.0 0.0 0.0
vertex 88.5176380902051 7.06814834742186 3.52495810318487e-015
vertex 88.7653668647302 7.15224093497743 3.52495810318487e-015
endloop
endfacet
facet normal -3.44977601929455e-018 5.30492183226033e-018 -1.0
outer loop
vertex 110.0 0.0 0.0
vertex 88.7653668647302 7.15224093497743 3.52495810318487e-015
vertex 89.0 7.26794919243113 3.52495810318487e-015
endloop
endfacet
facet normal -3.44977601929455e-018 5.30492183226033e-018 -1.0
outer loop
vertex 110.0 0.0 0.0
vertex 89.0 7.26794919243113 3.52495810318487e-015
vertex 89.2175228580174 7.41329331941753 3.52495810318487e-015
endloop
endfacet
facet normal -3.44977601929455e-018 5.30492183226033e-018 -1.0
outer loop
vertex 110.0 0.0 0.0
vertex 89.2175228580174 7.41329331941753 3.52495810318487e-015
vertex 89.4142135623731 7.58578643762691 3.52495810318487e-015
endloop
endfacet
facet normal -3.44977601929455e-018 5.30492183226033e-018 -1.0
outer loop
vertex 110.0 0.0 0.0
vertex 89.4142135623731 7.58578643762691 3.52495810318487e-015
vertex 89.5867066805825 7.78247714198256 3.52495810318487e-015
endloop
endfacet
facet normal -3.44977601929455e-018 5.30492183226033e-018 -1.0
outer loop
vertex 110.0 0.0 0.0
vertex 89.5867066805825 7.78247714198256 3.52495810318487e-015
vertex 89.7320508075689 8.0 3.52495810318487e-015
endloop
endfacet
facet normal -3.44977601929455e-018 5.30492183226033e-018 -1.0
outer loop
vertex 110.0 0.0 0.0
vertex 89.7320508075689 8.0 3.52495810318487e-015
vertex 89.8477590650226 8.23463313526982 3.52495810318487e-015
endloop
endfacet
facet normal -3.44977601929455e-018 5.30492183226033e-018 -1.0
outer loop
vertex 110.0 0.0 0.0
vertex 89.8477590650226 8.23463313526982 3.52495810318487e-015
vertex 89.9318516525781 8.48236190979496 3.52495810318487e-015
endloop
endfacet
facet normal -3.44977601929455e-018 5.30492183226033e-018 -1.0
outer loop
vertex 110.0 0.0 0.0
vertex 89.9318516525781 8.48236190979496 3.52495810318487e-015
vertex 90.0 9.0 3.52495810318487e-015
endloop
endfacet
facet normal -3.44977601929455e-018 5.30492183226033e-018 -1.0
outer loop
vertex 110.0 0.0 0.0
vertex 90.0 9.0 3.52495810318487e-015
vertex 108.0 40.0 0.0
endloop
endfacet
facet normal -3.44977601929455e-018 5.30492183226033e-018 -1.0
outer loop
vertex 110.0 0.0 0.0
vertex 108.0 40.0 0.0
vertex 108.517638090205 39.9318516525781 0.0
endloop
endfacet
facet normal -3.44977601929455e-018 5.30492183226033e-018 -1.0
outer loop
vertex 110.0 0.0 0.0
vertex 108.517638090205 39.9318516525781 0.0
vertex 109.0 39.7320508075689 0.0
endloop
endfacet
facet normal -3.44977601929455e-018 5.30492183226033e-018 -1.0
outer loop
vertex 110.0 0.0 0.0
vertex 109.0 39.7320508075689 0.0
vertex 109.414213562373 39.4142135623731 0.0
endloop
endfacet
facet normal -3.44977601929455e-018 5.30492183226033e-018 -1.0
outer loop
vertex 110.0 0.0 0.0
vertex 109.414213562373 39.4142135623731 0.0
vertex 109.732050807569 39.0 0.0
endloop
endfacet
facet normal -3.44977601929455e-018 5.30492183226033e-018 -1.0
outer loop
vertex 110.0 0.0 0.0
vertex 109.732050807569 39.0 0.0
vertex 109.931851652578 38.517638090205 0.0
endloop
endfacet
facet normal -3.44977601929455e-018 5.30492183226033e-018 -1.0
outer loop
vertex 110.0 0.0 0.0
vertex 109.931851652578 38.517638090205 0.0
vertex 110.0 38.0 0.0
endloop
endfacet
facet normal 0.0 -1.0 0.0
outer loop
vertex 0.0 0.0 0.0
vertex 1.5 0.0 2.0
vertex 0.0 0.0 18.0
endloop
endfacet
facet normal 0.0 -1.0 0.0
outer loop
vertex 1.5 0.0 2.0
vertex 0.0 0.0 0.0
vertex 108.5 0.0 2.0
endloop
endfacet
facet normal 0.0 -1.0 0.0
outer loop
vertex 0.0 0.0 18.0
vertex 1.5 0.0 2.0
vertex 1.5 0.0 18.0
endloop
endfacet
facet normal 0.0 -1.0 0.0
outer loop
vertex 110.0 0.0 0.0
vertex 108.5 0.0 2.0
vertex 0.0 0.0 0.0
endloop
endfacet
facet normal 0.0 -1.0 0.0
outer loop
vertex 108.5 0.0 2.0
vertex 110.0 0.0 0.0
vertex 110.0 0.0 18.0
endloop
endfacet
facet normal 0.0 -1.0 0.0
outer loop
vertex 108.5 0.0 2.0
vertex 110.0 0.0 18.0
vertex 108.5 0.0 18.0
endloop
endfacet
facet normal -1.0 0.0 -5.1772714063712e-035
outer loop
vertex 90.0 10.0 2.0
vertex 90.0 9.0 3.52495810318487e-015
vertex 90.0 9.0 2.0
endloop
endfacet
facet normal -1.0 0.0 -5.1772714063712e-035
outer loop
vertex 90.0 9.0 3.52495810318487e-015
vertex 90.0 10.0 2.0
vertex 90.0 10.0 3.52495810318487e-015
endloop
endfacet
facet normal -0.99144486137381 -0.130526192220052 -1.30651621555505e-033
outer loop
vertex 89.9318516525781 10.517638090205 2.0
vertex 90.0 10.0 3.52495810318487e-015
vertex 90.0 10.0 2.0
endloop
endfacet
facet normal -0.99144486137381 -0.130526192220052 -1.30651621555505e-033
outer loop
vertex 90.0 10.0 3.52495810318487e-015
vertex 89.9318516525781 10.517638090205 2.0
vertex 89.9318516525781 10.517638090205 3.52495810318487e-015
endloop
endfacet
facet normal -0.946930129495105 -0.321439465303164 -3.14010170149302e-033
outer loop
vertex 89.8477590650226 10.7653668647302 2.0
vertex 89.9318516525781 10.517638090205 3.52495810318487e-015
vertex 89.9318516525781 10.517638090205 2.0
endloop
endfacet
facet normal -0.946930129495105 -0.321439465303164 -3.14010170149302e-033
outer loop
vertex 89.9318516525781 10.517638090205 3.52495810318487e-015
vertex 89.8477590650226 10.7653668647302 2.0
vertex 89.8477590650226 10.7653668647302 3.52495810318487e-015
endloop
endfacet
facet normal -0.896872741532696 -0.442288690218985 -4.29963934943901e-033
outer loop
vertex 89.7320508075689 11.0 2.0
vertex 89.8477590650226 10.7653668647302 3.52495810318487e-015
vertex 89.8477590650226 10.7653668647302 2.0
endloop
endfacet
facet normal -0.896872741532696 -0.442288690218985 -4.29963934943901e-033
outer loop
vertex 89.8477590650226 10.7653668647302 3.52495810318487e-015
vertex 89.7320508075689 11.0 2.0
vertex 89.7320508075689 11.0 3.52495810318487e-015
endloop
endfacet
facet normal -0.831469612302545 -0.555570233019602 -5.3856089760312e-033
outer loop
vertex 89.5867066805825 11.2175228580174 2.0
vertex 89.7320508075689 11.0 3.52495810318487e-015
vertex 89.7320508075689 11.0 2.0
endloop
endfacet
facet normal -0.831469612302545 -0.555570233019602 -5.3856089760312e-033
outer loop
vertex 89.7320508075689 11.0 3.52495810318487e-015
vertex 89.5867066805825 11.2175228580174 2.0
vertex 89.5867066805825 11.2175228580174 3.52495810318487e-015
endloop
endfacet
facet normal -0.751839807478961 -0.659345815100088 -6.37942933987062e-033
outer loop
vertex 89.4142135623731 11.4142135623731 2.0
vertex 89.5867066805825 11.2175228580174 3.52495810318487e-015
vertex 89.5867066805825 11.2175228580174 2.0
endloop
endfacet
facet normal -0.751839807478961 -0.659345815100088 -6.37942933987062e-033
outer loop
vertex 89.5867066805825 11.2175228580174 3.52495810318487e-015
vertex 89.4142135623731 11.4142135623731 2.0
vertex 89.4142135623731 11.4142135623731 3.52495810318487e-015
endloop
endfacet
facet normal -0.659345815100081 -0.751839807478967 -7.26409589899243e-033
outer loop
vertex 89.4142135623731 11.4142135623731 2.0
vertex 89.2175228580174 11.5867066805825 3.52495810318487e-015
vertex 89.4142135623731 11.4142135623731 3.52495810318487e-015
endloop
endfacet
facet normal -0.659345815100081 -0.751839807478967 -7.26409589899243e-033
outer loop
vertex 89.2175228580174 11.5867066805825 3.52495810318487e-015
vertex 89.4142135623731 11.4142135623731 2.0
vertex 89.2175228580174 11.5867066805825 2.0
endloop
endfacet
facet normal -0.555570233019602 -0.831469612302545 -8.02447176329498e-033
outer loop
vertex 89.2175228580174 11.5867066805825 2.0
vertex 89.0 11.7320508075689 3.52495810318487e-015
vertex 89.2175228580174 11.5867066805825 3.52495810318487e-015
endloop
endfacet
facet normal -0.555570233019602 -0.831469612302545 -8.02447176329498e-033
outer loop
vertex 89.0 11.7320508075689 3.52495810318487e-015
vertex 89.2175228580174 11.5867066805825 2.0
vertex 89.0 11.7320508075689 2.0
endloop
endfacet
facet normal -0.442288690219007 -0.896872741532686 -8.64754669092355e-033
outer loop
vertex 89.0 11.7320508075689 2.0
vertex 88.7653668647302 11.8477590650226 3.52495810318487e-015
vertex 89.0 11.7320508075689 3.52495810318487e-015
endloop
endfacet
facet normal -0.442288690219007 -0.896872741532686 -8.64754669092355e-033
outer loop
vertex 88.7653668647302 11.8477590650226 3.52495810318487e-015
vertex 89.0 11.7320508075689 2.0
vertex 88.7653668647302 11.8477590650226 2.0
endloop
endfacet
facet normal -0.321439465303167 -0.946930129495104 -9.12265969711755e-033
outer loop
vertex 88.7653668647302 11.8477590650226 2.0
vertex 88.5176380902051 11.9318516525781 3.52495810318487e-015
vertex 88.7653668647302 11.8477590650226 3.52495810318487e-015
endloop
endfacet
facet normal -0.321439465303167 -0.946930129495104 -9.12265969711755e-033
outer loop
vertex 88.5176380902051 11.9318516525781 3.52495810318487e-015
vertex 88.7653668647302 11.8477590650226 2.0
vertex 88.5176380902051 11.9318516525781 2.0
endloop
endfacet
facet normal -0.130526192220051 -0.991444861373811 -9.54084513936414e-033
outer loop
vertex 88.5176380902051 11.9318516525781 2.0
vertex 88.0 12.0 3.52495810318487e-015
vertex 88.5176380902051 11.9318516525781 3.52495810318487e-015
endloop
endfacet
facet normal -0.130526192220051 -0.991444861373811 -9.54084513936414e-033
outer loop
vertex 88.0 12.0 3.52495810318487e-015
vertex 88.5176380902051 11.9318516525781 2.0
vertex 88.0 12.0 2.0
endloop
endfacet
facet normal 3.48144010191098e-017 -1.0 -9.61635670885969e-033
outer loop
vertex 88.0 12.0 2.0
vertex 7.0 12.0 3.52495810318487e-015
vertex 88.0 12.0 3.52495810318487e-015
endloop
endfacet
facet normal 3.48144010191098e-017 -1.0 -9.61635670885969e-033
outer loop
vertex 7.0 12.0 3.52495810318487e-015
vertex 88.0 12.0 2.0
vertex 7.0 12.0 2.0
endloop
endfacet
facet normal 0.130526192220052 -0.99144486137381 -9.52732974890887e-033
outer loop
vertex 7.0 12.0 2.0
vertex 6.48236190979496 11.9318516525781 3.52495810318487e-015
vertex 7.0 12.0 3.52495810318487e-015
endloop
endfacet
facet normal 0.130526192220052 -0.99144486137381 -9.52732974890887e-033
outer loop
vertex 6.48236190979496 11.9318516525781 3.52495810318487e-015
vertex 7.0 12.0 2.0
vertex 6.48236190979496 11.9318516525781 2.0
endloop
endfacet
facet normal 0.321439465303156 -0.946930129495108 -9.08937611006572e-033
outer loop
vertex 6.48236190979496 11.9318516525781 2.0
vertex 6.23463313526982 11.8477590650226 3.52495810318487e-015
vertex 6.48236190979496 11.9318516525781 3.52495810318487e-015
endloop
endfacet
facet normal 0.321439465303156 -0.946930129495108 -9.08937611006572e-033
outer loop
vertex 6.23463313526982 11.8477590650226 3.52495810318487e-015
vertex 6.48236190979496 11.9318516525781 2.0
vertex 6.23463313526982 11.8477590650226 2.0
endloop
endfacet
facet normal 0.442288690219002 -0.896872741532688 -8.60174971913893e-033
outer loop
vertex 6.23463313526982 11.8477590650226 2.0
vertex 6.0 11.7320508075689 3.52495810318487e-015
vertex 6.23463313526982 11.8477590650226 3.52495810318487e-015
endloop
endfacet
facet normal 0.442288690219002 -0.896872741532688 -8.60174971913893e-033
outer loop
vertex 6.0 11.7320508075689 3.52495810318487e-015
vertex 6.23463313526982 11.8477590650226 2.0
vertex 6.0 11.7320508075689 2.0
endloop
endfacet
facet normal 0.555570233019602 -0.831469612302545 -7.96694500566211e-033
outer loop
vertex 6.0 11.7320508075689 2.0
vertex 5.78247714198256 11.5867066805825 3.52495810318487e-015
vertex 6.0 11.7320508075689 3.52495810318487e-015
endloop
endfacet
facet normal 0.555570233019602 -0.831469612302545 -7.96694500566211e-033
outer loop
vertex 5.78247714198256 11.5867066805825 3.52495810318487e-015
vertex 6.0 11.7320508075689 2.0
vertex 5.78247714198256 11.5867066805825 2.0
endloop
endfacet
facet normal 0.659345815100071 -0.751839807478975 -7.19582365428394e-033
outer loop
vertex 5.78247714198256 11.5867066805825 2.0
vertex 5.58578643762691 11.4142135623731 3.52495810318487e-015
vertex 5.78247714198256 11.5867066805825 3.52495810318487e-015
endloop
endfacet
facet normal 0.659345815100071 -0.751839807478975 -7.19582365428394e-033
outer loop
vertex 5.58578643762691 11.4142135623731 3.52495810318487e-015
vertex 5.78247714198256 11.5867066805825 2.0
vertex 5.58578643762691 11.4142135623731 2.0
endloop
endfacet
facet normal 0.751839807478978 -0.659345815100068 -6.30157976512178e-033
outer loop
vertex 5.58578643762691 11.4142135623731 3.52495810318487e-015
vertex 5.41329331941753 11.2175228580174 2.0
vertex 5.41329331941753 11.2175228580174 3.52495810318487e-015
endloop
endfacet
facet normal 0.751839807478978 -0.659345815100068 -6.30157976512178e-033
outer loop
vertex 5.41329331941753 11.2175228580174 2.0
vertex 5.58578643762691 11.4142135623731 3.52495810318487e-015
vertex 5.58578643762691 11.4142135623731 2.0
endloop
endfacet
facet normal 0.831469612302545 -0.555570233019602 -5.29951409905039e-033
outer loop
vertex 5.41329331941753 11.2175228580174 3.52495810318487e-015
vertex 5.26794919243112 11.0 2.0
vertex 5.26794919243112 11.0 3.52495810318487e-015
endloop
endfacet
facet normal 0.831469612302545 -0.555570233019602 -5.29951409905039e-033
outer loop
vertex 5.26794919243112 11.0 2.0
vertex 5.41329331941753 11.2175228580174 3.52495810318487e-015
vertex 5.41329331941753 11.2175228580174 2.0
endloop
endfacet
facet normal 0.896872741532688 -0.442288690219003 -4.20677227744136e-033
outer loop
vertex 5.26794919243112 11.0 3.52495810318487e-015
vertex 5.15224093497743 10.7653668647302 2.0
vertex 5.15224093497743 10.7653668647302 3.52495810318487e-015
endloop
endfacet
facet normal 0.896872741532688 -0.442288690219003 -4.20677227744136e-033
outer loop
vertex 5.15224093497743 10.7653668647302 2.0
vertex 5.26794919243112 11.0 3.52495810318487e-015
vertex 5.26794919243112 11.0 2.0
endloop
endfacet
facet normal 0.946930129495106 -0.321439465303161 -3.04205141582766e-033
outer loop
vertex 5.15224093497743 10.7653668647302 3.52495810318487e-015
vertex 5.06814834742186 10.517638090205 2.0
vertex 5.06814834742186 10.517638090205 3.52495810318487e-015
endloop
endfacet
facet normal 0.946930129495106 -0.321439465303161 -3.04205141582766e-033
outer loop
vertex 5.06814834742186 10.517638090205 2.0
vertex 5.15224093497743 10.7653668647302 3.52495810318487e-015
vertex 5.15224093497743 10.7653668647302 2.0
endloop
endfacet
facet normal 0.99144486137381 -0.13052619222005 -1.20385663291935e-033
outer loop
vertex 5.06814834742186 10.517638090205 3.52495810318487e-015
vertex 5.0 10.0 2.0
vertex 5.0 10.0 3.52495810318487e-015
endloop
endfacet
facet normal 0.99144486137381 -0.13052619222005 -1.20385663291935e-033
outer loop
vertex 5.0 10.0 2.0
vertex 5.06814834742186 10.517638090205 3.52495810318487e-015
vertex 5.06814834742186 10.517638090205 2.0
endloop
endfacet
facet normal 1.0 0.0 5.1772714063712e-035
outer loop
vertex 5.0 10.0 3.52495810318487e-015
vertex 5.0 9.0 2.0
vertex 5.0 9.0 3.52495810318487e-015
endloop
endfacet
facet normal 1.0 0.0 5.1772714063712e-035
outer loop
vertex 5.0 9.0 2.0
vertex 5.0 10.0 3.52495810318487e-015
vertex 5.0 10.0 2.0
endloop
endfacet
facet normal 0.99144486137381 0.130526192220056 1.30651621555509e-033
outer loop
vertex 5.0 9.0 3.52495810318487e-015
vertex 5.06814834742187 8.48236190979496 2.0
vertex 5.06814834742187 8.48236190979496 3.52495810318487e-015
endloop
endfacet
facet normal 0.99144486137381 0.130526192220056 1.30651621555509e-033
outer loop
vertex 5.06814834742187 8.48236190979496 2.0
vertex 5.0 9.0 3.52495810318487e-015
vertex 5.0 9.0 2.0
endloop
endfacet
facet normal 0.946930129495106 0.321439465303161 3.14010170149299e-033
outer loop
vertex 5.06814834742187 8.48236190979496 3.52495810318487e-015
vertex 5.15224093497743 8.23463313526982 2.0
vertex 5.15224093497743 8.23463313526982 3.52495810318487e-015
endloop
endfacet
facet normal 0.946930129495106 0.321439465303161 3.14010170149299e-033
outer loop
vertex 5.15224093497743 8.23463313526982 2.0
vertex 5.06814834742187 8.48236190979496 3.52495810318487e-015
vertex 5.06814834742187 8.48236190979496 2.0
endloop
endfacet
facet normal 0.896872741532687 0.442288690219005 4.2996393494392e-033
outer loop
vertex 5.15224093497743 8.23463313526982 3.52495810318487e-015
vertex 5.26794919243113 8.0 2.0
vertex 5.26794919243113 8.0 3.52495810318487e-015
endloop
endfacet
facet normal 0.896872741532687 0.442288690219005 4.2996393494392e-033
outer loop
vertex 5.26794919243113 8.0 2.0
vertex 5.15224093497743 8.23463313526982 3.52495810318487e-015
vertex 5.15224093497743 8.23463313526982 2.0
endloop
endfacet
facet normal 0.831469612302543 0.555570233019606 5.38560897603123e-033
outer loop
vertex 5.26794919243113 8.0 3.52495810318487e-015
vertex 5.41329331941754 7.78247714198256 2.0
vertex 5.41329331941754 7.78247714198256 3.52495810318487e-015
endloop
endfacet
facet normal 0.831469612302543 0.555570233019606 5.38560897603123e-033
outer loop
vertex 5.41329331941754 7.78247714198256 2.0
vertex 5.26794919243113 8.0 3.52495810318487e-015
vertex 5.26794919243113 8.0 2.0
endloop
endfacet
facet normal 0.751839807478974 0.659345815100073 6.37942933987047e-033
outer loop
vertex 5.41329331941754 7.78247714198256 3.52495810318487e-015
vertex 5.58578643762691 7.58578643762691 2.0
vertex 5.58578643762691 7.58578643762691 3.52495810318487e-015
endloop
endfacet
facet normal 0.751839807478974 0.659345815100073 6.37942933987047e-033
outer loop
vertex 5.58578643762691 7.58578643762691 2.0
vertex 5.41329331941754 7.78247714198256 3.52495810318487e-015
vertex 5.41329331941754 7.78247714198256 2.0
endloop
endfacet
facet normal 0.65934581510007 0.751839807478977 7.26409589899252e-033
outer loop
vertex 5.58578643762691 7.58578643762691 2.0
vertex 5.78247714198257 7.41329331941753 3.52495810318487e-015
vertex 5.58578643762691 7.58578643762691 3.52495810318487e-015
endloop
endfacet
facet normal 0.65934581510007 0.751839807478977 7.26409589899252e-033
outer loop
vertex 5.78247714198257 7.41329331941753 3.52495810318487e-015
vertex 5.58578643762691 7.58578643762691 2.0
vertex 5.78247714198257 7.41329331941753 2.0
endloop
endfacet
facet normal 0.5555702330196 0.831469612302547 8.024471763295e-033
outer loop
vertex 5.78247714198257 7.41329331941753 2.0
vertex 6.00000000000001 7.26794919243112 3.52495810318487e-015
vertex 5.78247714198257 7.41329331941753 3.52495810318487e-015
endloop
endfacet
facet normal 0.5555702330196 0.831469612302547 8.024471763295e-033
outer loop
vertex 6.00000000000001 7.26794919243112 3.52495810318487e-015
vertex 5.78247714198257 7.41329331941753 2.0
vertex 6.00000000000001 7.26794919243112 2.0
endloop
endfacet
facet normal 0.442288690219001 0.896872741532689 8.64754669092358e-033
outer loop
vertex 6.00000000000001 7.26794919243112 2.0
vertex 6.23463313526983 7.15224093497743 3.52495810318487e-015
vertex 6.00000000000001 7.26794919243112 3.52495810318487e-015
endloop
endfacet
facet normal 0.442288690219001 0.896872741532689 8.64754669092358e-033
outer loop
vertex 6.23463313526983 7.15224093497743 3.52495810318487e-015
vertex 6.00000000000001 7.26794919243112 2.0
vertex 6.23463313526983 7.15224093497743 2.0
endloop
endfacet
facet normal 0.321439465303161 0.946930129495106 9.12265969711757e-033
outer loop
vertex 6.23463313526983 7.15224093497743 2.0
vertex 6.48236190979497 7.06814834742186 3.52495810318487e-015
vertex 6.23463313526983 7.15224093497743 3.52495810318487e-015
endloop
endfacet
facet normal 0.321439465303161 0.946930129495106 9.12265969711757e-033
outer loop
vertex 6.48236190979497 7.06814834742186 3.52495810318487e-015
vertex 6.23463313526983 7.15224093497743 2.0
vertex 6.48236190979497 7.06814834742186 2.0
endloop
endfacet
facet normal 0.130526192220051 0.99144486137381 9.54084513936414e-033
outer loop
vertex 6.48236190979497 7.06814834742186 2.0
vertex 7.00000000000001 7.0 3.52495810318487e-015
vertex 6.48236190979497 7.06814834742186 3.52495810318487e-015
endloop
endfacet
facet normal 0.130526192220051 0.99144486137381 9.54084513936414e-033
outer loop
vertex 7.00000000000001 7.0 3.52495810318487e-015
vertex 6.48236190979497 7.06814834742186 2.0
vertex 7.00000000000001 7.0 2.0
endloop
endfacet
facet normal -0.0 1.0 9.61635670885969e-033
outer loop
vertex 7.00000000000001 7.0 2.0
vertex 88.0 7.0 3.52495810318487e-015
vertex 7.00000000000001 7.0 3.52495810318487e-015
endloop
endfacet
facet normal -0.0 1.0 9.61635670885969e-033
outer loop
vertex 88.0 7.0 3.52495810318487e-015
vertex 7.00000000000001 7.0 2.0
vertex 88.0 7.0 2.0
endloop
endfacet
facet normal -0.130526192220051 0.991444861373811 9.52732974890888e-033
outer loop
vertex 88.0 7.0 2.0
vertex 88.5176380902051 7.06814834742186 3.52495810318487e-015
vertex 88.0 7.0 3.52495810318487e-015
endloop
endfacet
facet normal -0.130526192220051 0.991444861373811 9.52732974890888e-033
outer loop
vertex 88.5176380902051 7.06814834742186 3.52495810318487e-015
vertex 88.0 7.0 2.0
vertex 88.5176380902051 7.06814834742186 2.0
endloop
endfacet
facet normal -0.321439465303167 0.946930129495104 9.08937611006568e-033
outer loop
vertex 88.5176380902051 7.06814834742186 2.0
vertex 88.7653668647302 7.15224093497743 3.52495810318487e-015
vertex 88.5176380902051 7.06814834742186 3.52495810318487e-015
endloop
endfacet
facet normal -0.321439465303167 0.946930129495104 9.08937611006568e-033
outer loop
vertex 88.7653668647302 7.15224093497743 3.52495810318487e-015
vertex 88.5176380902051 7.06814834742186 2.0
vertex 88.7653668647302 7.15224093497743 2.0
endloop
endfacet
facet normal -0.442288690219007 0.896872741532686 8.6017497191389e-033
outer loop
vertex 88.7653668647302 7.15224093497743 2.0
vertex 89.0 7.26794919243113 3.52495810318487e-015
vertex 88.7653668647302 7.15224093497743 3.52495810318487e-015
endloop
endfacet
facet normal -0.442288690219007 0.896872741532686 8.6017497191389e-033
outer loop
vertex 89.0 7.26794919243113 3.52495810318487e-015
vertex 88.7653668647302 7.15224093497743 2.0
vertex 89.0 7.26794919243113 2.0
endloop
endfacet
facet normal -0.555570233019602 0.831469612302545 7.96694500566211e-033
outer loop
vertex 89.0 7.26794919243113 2.0
vertex 89.2175228580174 7.41329331941753 3.52495810318487e-015
vertex 89.0 7.26794919243113 3.52495810318487e-015
endloop
endfacet
facet normal -0.555570233019602 0.831469612302545 7.96694500566211e-033
outer loop
vertex 89.2175228580174 7.41329331941753 3.52495810318487e-015
vertex 89.0 7.26794919243113 2.0
vertex 89.2175228580174 7.41329331941753 2.0
endloop
endfacet
facet normal -0.659345815100056 0.751839807478989 7.19582365428407e-033
outer loop
vertex 89.2175228580174 7.41329331941753 2.0
vertex 89.4142135623731 7.58578643762691 3.52495810318487e-015
vertex 89.2175228580174 7.41329331941753 3.52495810318487e-015
endloop
endfacet
facet normal -0.659345815100056 0.751839807478989 7.19582365428407e-033
outer loop
vertex 89.4142135623731 7.58578643762691 3.52495810318487e-015
vertex 89.2175228580174 7.41329331941753 2.0
vertex 89.4142135623731 7.58578643762691 2.0
endloop
endfacet
facet normal -0.751839807478982 0.659345815100064 6.30157976512173e-033
outer loop
vertex 89.5867066805825 7.78247714198256 2.0
vertex 89.4142135623731 7.58578643762691 3.52495810318487e-015
vertex 89.4142135623731 7.58578643762691 2.0
endloop
endfacet
facet normal -0.751839807478982 0.659345815100064 6.30157976512173e-033
outer loop
vertex 89.4142135623731 7.58578643762691 3.52495810318487e-015
vertex 89.5867066805825 7.78247714198256 2.0
vertex 89.5867066805825 7.78247714198256 3.52495810318487e-015
endloop
endfacet
facet normal -0.831469612302545 0.555570233019602 5.29951409905039e-033
outer loop
vertex 89.7320508075689 8.0 2.0
vertex 89.5867066805825 7.78247714198256 3.52495810318487e-015
vertex 89.5867066805825 7.78247714198256 2.0
endloop
endfacet
facet normal -0.831469612302545 0.555570233019602 5.29951409905039e-033
outer loop
vertex 89.5867066805825 7.78247714198256 3.52495810318487e-015
vertex 89.7320508075689 8.0 2.0
vertex 89.7320508075689 8.0 3.52495810318487e-015
endloop
endfacet
facet normal -0.896872741532697 0.442288690218983 4.20677227744117e-033
outer loop
vertex 89.8477590650226 8.23463313526982 2.0
vertex 89.7320508075689 8.0 3.52495810318487e-015
vertex 89.7320508075689 8.0 2.0
endloop
endfacet
facet normal -0.896872741532697 0.442288690218983 4.20677227744117e-033
outer loop
vertex 89.7320508075689 8.0 3.52495810318487e-015
vertex 89.8477590650226 8.23463313526982 2.0
vertex 89.8477590650226 8.23463313526982 3.52495810318487e-015
endloop
endfacet
facet normal -0.946930129495104 0.321439465303166 3.0420514158277e-033
outer loop
vertex 89.9318516525781 8.48236190979496 2.0
vertex 89.8477590650226 8.23463313526982 3.52495810318487e-015
vertex 89.8477590650226 8.23463313526982 2.0
endloop
endfacet
facet normal -0.946930129495104 0.321439465303166 3.0420514158277e-033
outer loop
vertex 89.8477590650226 8.23463313526982 3.52495810318487e-015
vertex 89.9318516525781 8.48236190979496 2.0
vertex 89.9318516525781 8.48236190979496 3.52495810318487e-015
endloop
endfacet
facet normal -0.99144486137381 0.130526192220052 1.20385663291936e-033
outer loop
vertex 90.0 9.0 2.0
vertex 89.9318516525781 8.48236190979496 3.52495810318487e-015
vertex 89.9318516525781 8.48236190979496 2.0
endloop
endfacet
facet normal -0.99144486137381 0.130526192220052 1.20385663291936e-033
outer loop
vertex 89.9318516525781 8.48236190979496 3.52495810318487e-015
vertex 90.0 9.0 2.0
vertex 90.0 9.0 3.52495810318487e-015
endloop
endfacet
facet normal 0.130526192220051 0.99144486137381 -0.0
outer loop
vertex 108.0 40.0 18.0
vertex 108.517638090205 39.9318516525781 0.0
vertex 108.0 40.0 0.0
endloop
endfacet
facet normal 0.130526192220051 0.99144486137381 -0.0
outer loop
vertex 108.517638090205 39.9318516525781 0.0
vertex 108.0 40.0 18.0
vertex 108.517638090205 39.9318516525781 18.0
endloop
endfacet
facet normal 0.382683432365095 0.923879532511285 0.0
outer loop
vertex 108.517638090205 39.9318516525781 18.0
vertex 109.0 39.7320508075689 0.0
vertex 108.517638090205 39.9318516525781 0.0
endloop
endfacet
facet normal 0.382683432365095 0.923879532511285 0.0
outer loop
vertex 109.0 39.7320508075689 0.0
vertex 108.517638090205 39.9318516525781 18.0
vertex 109.0 39.7320508075689 18.0
endloop
endfacet
facet normal 0.608761429008713 0.793353340291241 0.0
outer loop
vertex 109.0 39.7320508075689 18.0
vertex 109.414213562373 39.4142135623731 0.0
vertex 109.0 39.7320508075689 0.0
endloop
endfacet
facet normal 0.608761429008713 0.793353340291241 0.0
outer loop
vertex 109.414213562373 39.4142135623731 0.0
vertex 109.0 39.7320508075689 18.0
vertex 109.414213562373 39.4142135623731 18.0
endloop
endfacet
facet normal 0.793353340291248 0.608761429008704 0.0
outer loop
vertex 109.414213562373 39.4142135623731 0.0
vertex 109.732050807569 39.0 18.0
vertex 109.732050807569 39.0 0.0
endloop
endfacet
facet normal 0.793353340291248 0.608761429008704 0.0
outer loop
vertex 109.732050807569 39.0 18.0
vertex 109.414213562373 39.4142135623731 0.0
vertex 109.414213562373 39.4142135623731 18.0
endloop
endfacet
facet normal 0.92387953251129 0.382683432365082 0.0
outer loop
vertex 109.732050807569 39.0 0.0
vertex 109.931851652578 38.517638090205 18.0
vertex 109.931851652578 38.517638090205 0.0
endloop
endfacet
facet normal 0.92387953251129 0.382683432365082 0.0
outer loop
vertex 109.931851652578 38.517638090205 18.0
vertex 109.732050807569 39.0 0.0
vertex 109.732050807569 39.0 18.0
endloop
endfacet
facet normal 0.991444861373808 0.130526192220073 -0.0
outer loop
vertex 109.931851652578 38.517638090205 0.0
vertex 110.0 38.0 18.0
vertex 110.0 38.0 0.0
endloop
endfacet
facet normal 0.991444861373808 0.130526192220073 -0.0
outer loop
vertex 110.0 38.0 18.0
vertex 109.931851652578 38.517638090205 0.0
vertex 109.931851652578 38.517638090205 18.0
endloop
endfacet
facet normal -0.99144486137381 0.130526192220051 0.0
outer loop
vertex 0.0681483474218632 38.517638090205 18.0
vertex 0.0 38.0 7.04991620636974e-016
vertex 0.0 38.0 18.0
endloop
endfacet
facet normal -0.99144486137381 0.130526192220051 0.0
outer loop
vertex 0.0 38.0 7.04991620636974e-016
vertex 0.0681483474218632 38.517638090205 18.0
vertex 0.0681483474218632 38.517638090205 7.04991620636974e-016
endloop
endfacet
facet normal -0.923879532511287 0.38268343236509 -0.0
outer loop
vertex 0.267949192431122 39.0 18.0
vertex 0.0681483474218632 38.517638090205 7.04991620636974e-016
vertex 0.0681483474218632 38.517638090205 18.0
endloop
endfacet
facet normal -0.923879532511287 0.38268343236509 -0.0
outer loop
vertex 0.0681483474218632 38.517638090205 7.04991620636974e-016
vertex 0.267949192431122 39.0 18.0
vertex 0.267949192431122 39.0 7.04991620636974e-016
endloop
endfacet
facet normal -0.793353340291235 0.608761429008721 -0.0
outer loop
vertex 0.585786437626904 39.4142135623731 18.0
vertex 0.267949192431122 39.0 7.04991620636974e-016
vertex 0.267949192431122 39.0 18.0
endloop
endfacet
facet normal -0.793353340291235 0.608761429008721 -0.0
outer loop
vertex 0.267949192431122 39.0 7.04991620636974e-016
vertex 0.585786437626904 39.4142135623731 18.0
vertex 0.585786437626904 39.4142135623731 7.04991620636974e-016
endloop
endfacet
facet normal -0.608761429008725 0.793353340291232 -0.0
outer loop
vertex 0.585786437626904 39.4142135623731 18.0
vertex 0.999999999999999 39.7320508075689 7.04991620636974e-016
vertex 0.585786437626904 39.4142135623731 7.04991620636974e-016
endloop
endfacet
facet normal -0.608761429008725 0.793353340291232 -0.0
outer loop
vertex 0.999999999999999 39.7320508075689 7.04991620636974e-016
vertex 0.585786437626904 39.4142135623731 18.0
vertex 0.999999999999999 39.7320508075689 18.0
endloop
endfacet
facet normal -0.382683432365082 0.92387953251129 -0.0
outer loop
vertex 0.999999999999999 39.7320508075689 18.0
vertex 1.48236190979496 39.9318516525781 7.04991620636974e-016
vertex 0.999999999999999 39.7320508075689 7.04991620636974e-016
endloop
endfacet
facet normal -0.382683432365082 0.92387953251129 -0.0
outer loop
vertex 1.48236190979496 39.9318516525781 7.04991620636974e-016
vertex 0.999999999999999 39.7320508075689 18.0
vertex 1.48236190979496 39.9318516525781 18.0
endloop
endfacet
facet normal -0.0 1.0 -0.0
outer loop
vertex 2.0 40.0 18.0
vertex 12.0 40.0 2.5
vertex 2.0 40.0 7.04991620636974e-016
endloop
endfacet
facet normal -0.0 1.0 -0.0
outer loop
vertex 12.0 40.0 2.5
vertex 2.0 40.0 18.0
vertex 12.0 40.0 15.5
endloop
endfacet
facet normal -0.0 1.0 -0.0
outer loop
vertex 12.0 40.0 15.5
vertex 2.0 40.0 18.0
vertex 32.0 40.0 15.5
endloop
endfacet
facet normal -0.0 1.0 -0.0
outer loop
vertex 108.0 40.0 0.0
vertex 32.0 40.0 2.5
vertex 108.0 40.0 18.0
endloop
endfacet
facet normal -0.0 1.0 -0.0
outer loop
vertex 32.0 40.0 2.5
vertex 108.0 40.0 0.0
vertex 2.0 40.0 7.04991620636974e-016
endloop
endfacet
facet normal -0.0 1.0 -0.0
outer loop
vertex 32.0 40.0 2.5
vertex 2.0 40.0 7.04991620636974e-016
vertex 12.0 40.0 2.5
endloop
endfacet
facet normal -0.0 1.0 -0.0
outer loop
vertex 108.0 40.0 18.0
vertex 32.0 40.0 2.5
vertex 32.0 40.0 15.5
endloop
endfacet
facet normal -0.0 1.0 -0.0
outer loop
vertex 108.0 40.0 18.0
vertex 32.0 40.0 15.5
vertex 2.0 40.0 18.0
endloop
endfacet
facet normal -0.130526192220052 0.99144486137381 -0.0
outer loop
vertex 1.48236190979496 39.9318516525781 18.0
vertex 2.0 40.0 7.04991620636974e-016
vertex 1.48236190979496 39.9318516525781 7.04991620636974e-016
endloop
endfacet
facet normal -0.130526192220052 0.99144486137381 -0.0
outer loop
vertex 2.0 40.0 7.04991620636974e-016
vertex 1.48236190979496 39.9318516525781 18.0
vertex 2.0 40.0 18.0
endloop
endfacet
facet normal -0.0 -0.0 1.0
outer loop
vertex 1.5 0.0 2.0
vertex 5.0 9.0 2.0
vertex 1.5 38.0 2.0
endloop
endfacet
facet normal -0.0 -0.0 1.0
outer loop
vertex 5.0 9.0 2.0
vertex 1.5 0.0 2.0
vertex 5.06814834742187 8.48236190979496 2.0
endloop
endfacet
facet normal -0.0 -0.0 1.0
outer loop
vertex 5.06814834742187 8.48236190979496 2.0
vertex 1.5 0.0 2.0
vertex 5.15224093497743 8.23463313526982 2.0
endloop
endfacet
facet normal -0.0 -0.0 1.0
outer loop
vertex 5.15224093497743 8.23463313526982 2.0
vertex 1.5 0.0 2.0
vertex 5.26794919243113 8.0 2.0
endloop
endfacet
facet normal -0.0 -0.0 1.0
outer loop
vertex 5.26794919243113 8.0 2.0
vertex 1.5 0.0 2.0
vertex 5.41329331941754 7.78247714198256 2.0
endloop
endfacet
facet normal -0.0 -0.0 1.0
outer loop
vertex 5.41329331941754 7.78247714198256 2.0
vertex 1.5 0.0 2.0
vertex 5.58578643762691 7.58578643762691 2.0
endloop
endfacet
facet normal -0.0 -0.0 1.0
outer loop
vertex 5.58578643762691 7.58578643762691 2.0
vertex 1.5 0.0 2.0
vertex 5.78247714198257 7.41329331941753 2.0
endloop
endfacet
facet normal -0.0 -0.0 1.0
outer loop
vertex 5.78247714198257 7.41329331941753 2.0
vertex 1.5 0.0 2.0
vertex 6.00000000000001 7.26794919243112 2.0
endloop
endfacet
facet normal -0.0 -0.0 1.0
outer loop
vertex 6.00000000000001 7.26794919243112 2.0
vertex 1.5 0.0 2.0
vertex 6.23463313526983 7.15224093497743 2.0
endloop
endfacet
facet normal -0.0 -0.0 1.0
outer loop
vertex 6.23463313526983 7.15224093497743 2.0
vertex 1.5 0.0 2.0
vertex 6.48236190979497 7.06814834742186 2.0
endloop
endfacet
facet normal -0.0 -0.0 1.0
outer loop
vertex 6.48236190979497 7.06814834742186 2.0
vertex 1.5 0.0 2.0
vertex 7.00000000000001 7.0 2.0
endloop
endfacet
facet normal -0.0 -0.0 1.0
outer loop
vertex 7.00000000000001 7.0 2.0
vertex 1.5 0.0 2.0
vertex 108.5 0.0 2.0
endloop
endfacet
facet normal -0.0 -0.0 1.0
outer loop
vertex 1.5 38.0 2.0
vertex 5.0 9.0 2.0
vertex 1.51703708685547 38.1294095225513 2.0
endloop
endfacet
facet normal -0.0 -0.0 1.0
outer loop
vertex 1.51703708685547 38.1294095225513 2.0
vertex 5.0 9.0 2.0
vertex 1.56698729810778 38.25 2.0
endloop
endfacet
facet normal -0.0 -0.0 1.0
outer loop
vertex 1.56698729810778 38.25 2.0
vertex 5.0 9.0 2.0
vertex 1.64644660940673 38.3535533905933 2.0
endloop
endfacet
facet normal -0.0 -0.0 1.0
outer loop
vertex 1.64644660940673 38.3535533905933 2.0
vertex 5.0 9.0 2.0
vertex 1.75 38.4330127018922 2.0
endloop
endfacet
facet normal -0.0 -0.0 1.0
outer loop
vertex 1.75 38.4330127018922 2.0
vertex 5.0 9.0 2.0
vertex 1.87059047744874 38.4829629131445 2.0
endloop
endfacet
facet normal -0.0 -0.0 1.0
outer loop
vertex 1.87059047744874 38.4829629131445 2.0
vertex 5.0 9.0 2.0
vertex 2.0 38.5 2.0
endloop
endfacet
facet normal -0.0 -0.0 1.0
outer loop
vertex 7.00000000000001 7.0 2.0
vertex 108.5 0.0 2.0
vertex 88.0 7.0 2.0
endloop
endfacet
facet normal -0.0 -0.0 1.0
outer loop
vertex 88.0 7.0 2.0
vertex 108.5 0.0 2.0
vertex 88.5176380902051 7.06814834742186 2.0
endloop
endfacet
facet normal -0.0 -0.0 1.0
outer loop
vertex 88.5176380902051 7.06814834742186 2.0
vertex 108.5 0.0 2.0
vertex 88.7653668647302 7.15224093497743 2.0
endloop
endfacet
facet normal -0.0 -0.0 1.0
outer loop
vertex 88.7653668647302 7.15224093497743 2.0
vertex 108.5 0.0 2.0
vertex 89.0 7.26794919243113 2.0
endloop
endfacet
facet normal -0.0 -0.0 1.0
outer loop
vertex 89.0 7.26794919243113 2.0
vertex 108.5 0.0 2.0
vertex 89.2175228580174 7.41329331941753 2.0
endloop
endfacet
facet normal -0.0 -0.0 1.0
outer loop
vertex 89.2175228580174 7.41329331941753 2.0
vertex 108.5 0.0 2.0
vertex 89.4142135623731 7.58578643762691 2.0
endloop
endfacet
facet normal -0.0 -0.0 1.0
outer loop
vertex 89.4142135623731 7.58578643762691 2.0
vertex 108.5 0.0 2.0
vertex 89.5867066805825 7.78247714198256 2.0
endloop
endfacet
facet normal -0.0 -0.0 1.0
outer loop
vertex 89.5867066805825 7.78247714198256 2.0
vertex 108.5 0.0 2.0
vertex 89.7320508075689 8.0 2.0
endloop
endfacet
facet normal -0.0 -0.0 1.0
outer loop
vertex 89.7320508075689 8.0 2.0
vertex 108.5 0.0 2.0
vertex 89.8477590650226 8.23463313526982 2.0
endloop
endfacet
facet normal -0.0 -0.0 1.0
outer loop
vertex 89.8477590650226 8.23463313526982 2.0
vertex 108.5 0.0 2.0
vertex 89.9318516525781 8.48236190979496 2.0
endloop
endfacet
facet normal -0.0 -0.0 1.0
outer loop
vertex 89.9318516525781 8.48236190979496 2.0
vertex 108.5 0.0 2.0
vertex 90.0 9.0 2.0
endloop
endfacet
facet normal -0.0 -0.0 1.0
outer loop
vertex 90.0 9.0 2.0
vertex 108.5 0.0 2.0
vertex 90.0 10.0 2.0
endloop
endfacet
facet normal -0.0 -0.0 1.0
outer loop
vertex 90.0 10.0 2.0
vertex 108.5 0.0 2.0
vertex 108.0 38.5 2.0
endloop
endfacet
facet normal -0.0 -0.0 1.0
outer loop
vertex 108.0 38.5 2.0
vertex 108.5 0.0 2.0
vertex 108.129409522551 38.4829629131445 2.0
endloop
endfacet
facet normal -0.0 -0.0 1.0
outer loop
vertex 108.129409522551 38.4829629131445 2.0
vertex 108.5 0.0 2.0
vertex 108.25 38.4330127018922 2.0
endloop
endfacet
facet normal -0.0 -0.0 1.0
outer loop
vertex 108.25 38.4330127018922 2.0
vertex 108.5 0.0 2.0
vertex 108.353553390593 38.3535533905933 2.0
endloop
endfacet
facet normal -0.0 -0.0 1.0
outer loop
vertex 108.353553390593 38.3535533905933 2.0
vertex 108.5 0.0 2.0
vertex 108.433012701892 38.25 2.0
endloop
endfacet
facet normal -0.0 -0.0 1.0
outer loop
vertex 108.433012701892 38.25 2.0
vertex 108.5 0.0 2.0
vertex 108.482962913145 38.1294095225513 2.0
endloop
endfacet
facet normal -0.0 -0.0 1.0
outer loop
vertex 108.482962913145 38.1294095225513 2.0
vertex 108.5 0.0 2.0
vertex 108.5 38.0 2.0
endloop
endfacet
facet normal -0.0 -0.0 1.0
outer loop
vertex 2.0 38.5 2.0
vertex 6.48236190979496 11.9318516525781 2.0
vertex 108.0 38.5 2.0
endloop
endfacet
facet normal -0.0 -0.0 1.0
outer loop
vertex 6.48236190979496 11.9318516525781 2.0
vertex 2.0 38.5 2.0
vertex 6.23463313526982 11.8477590650226 2.0
endloop
endfacet
facet normal -0.0 -0.0 1.0
outer loop
vertex 6.23463313526982 11.8477590650226 2.0
vertex 2.0 38.5 2.0
vertex 6.0 11.7320508075689 2.0
endloop
endfacet
facet normal -0.0 -0.0 1.0
outer loop
vertex 6.0 11.7320508075689 2.0
vertex 2.0 38.5 2.0
vertex 5.78247714198256 11.5867066805825 2.0
endloop
endfacet
facet normal -0.0 -0.0 1.0
outer loop
vertex 5.78247714198256 11.5867066805825 2.0
vertex 2.0 38.5 2.0
vertex 5.58578643762691 11.4142135623731 2.0
endloop
endfacet
facet normal -0.0 -0.0 1.0
outer loop
vertex 5.58578643762691 11.4142135623731 2.0
vertex 2.0 38.5 2.0
vertex 5.41329331941753 11.2175228580174 2.0
endloop
endfacet
facet normal -0.0 -0.0 1.0
outer loop
vertex 5.41329331941753 11.2175228580174 2.0
vertex 2.0 38.5 2.0
vertex 5.26794919243112 11.0 2.0
endloop
endfacet
facet normal -0.0 -0.0 1.0
outer loop
vertex 5.26794919243112 11.0 2.0
vertex 2.0 38.5 2.0
vertex 5.15224093497743 10.7653668647302 2.0
endloop
endfacet
facet normal -0.0 -0.0 1.0
outer loop
vertex 5.15224093497743 10.7653668647302 2.0
vertex 2.0 38.5 2.0
vertex 5.06814834742186 10.517638090205 2.0
endloop
endfacet
facet normal -0.0 -0.0 1.0
outer loop
vertex 5.06814834742186 10.517638090205 2.0
vertex 2.0 38.5 2.0
vertex 5.0 10.0 2.0
endloop
endfacet
facet normal -0.0 -0.0 1.0
outer loop
vertex 5.0 10.0 2.0
vertex 2.0 38.5 2.0
vertex 5.0 9.0 2.0
endloop
endfacet
facet normal -0.0 -0.0 1.0
outer loop
vertex 108.0 38.5 2.0
vertex 6.48236190979496 11.9318516525781 2.0
vertex 7.0 12.0 2.0
endloop
endfacet
facet normal -0.0 -0.0 1.0
outer loop
vertex 108.0 38.5 2.0
vertex 7.0 12.0 2.0
vertex 88.0 12.0 2.0
endloop
endfacet
facet normal -0.0 -0.0 1.0
outer loop
vertex 108.0 38.5 2.0
vertex 88.0 12.0 2.0
vertex 88.5176380902051 11.9318516525781 2.0
endloop
endfacet
facet normal -0.0 -0.0 1.0
outer loop
vertex 108.0 38.5 2.0
vertex 88.5176380902051 11.9318516525781 2.0
vertex 88.7653668647302 11.8477590650226 2.0
endloop
endfacet
facet normal -0.0 -0.0 1.0
outer loop
vertex 108.0 38.5 2.0
vertex 88.7653668647302 11.8477590650226 2.0
vertex 89.0 11.7320508075689 2.0
endloop
endfacet
facet normal -0.0 -0.0 1.0
outer loop
vertex 108.0 38.5 2.0
vertex 89.0 11.7320508075689 2.0
vertex 89.2175228580174 11.5867066805825 2.0
endloop
endfacet
facet normal -0.0 -0.0 1.0
outer loop
vertex 108.0 38.5 2.0
vertex 89.2175228580174 11.5867066805825 2.0
vertex 89.4142135623731 11.4142135623731 2.0
endloop
endfacet
facet normal -0.0 -0.0 1.0
outer loop
vertex 108.0 38.5 2.0
vertex 89.4142135623731 11.4142135623731 2.0
vertex 89.5867066805825 11.2175228580174 2.0
endloop
endfacet
facet normal -0.0 -0.0 1.0
outer loop
vertex 108.0 38.5 2.0
vertex 89.5867066805825 11.2175228580174 2.0
vertex 89.7320508075689 11.0 2.0
endloop
endfacet
facet normal -0.0 -0.0 1.0
outer loop
vertex 108.0 38.5 2.0
vertex 89.7320508075689 11.0 2.0
vertex 89.8477590650226 10.7653668647302 2.0
endloop
endfacet
facet normal -0.0 -0.0 1.0
outer loop
vertex 108.0 38.5 2.0
vertex 89.8477590650226 10.7653668647302 2.0
vertex 89.9318516525781 10.517638090205 2.0
endloop
endfacet
facet normal -0.0 -0.0 1.0
outer loop
vertex 108.0 38.5 2.0
vertex 89.9318516525781 10.517638090205 2.0
vertex 90.0 10.0 2.0
endloop
endfacet
facet normal 0.0 0.0 1.0
outer loop
vertex 110.0 0.0 18.0
vertex 108.5 38.0 18.0
vertex 108.5 0.0 18.0
endloop
endfacet
facet normal 0.0 0.0 1.0
outer loop
vertex 108.5 38.0 18.0
vertex 110.0 0.0 18.0
vertex 108.517638090205 39.9318516525781 18.0
endloop
endfacet
facet normal 0.0 0.0 1.0
outer loop
vertex 108.517638090205 39.9318516525781 18.0
vertex 110.0 0.0 18.0
vertex 109.0 39.7320508075689 18.0
endloop
endfacet
facet normal 0.0 0.0 1.0
outer loop
vertex 109.0 39.7320508075689 18.0
vertex 110.0 0.0 18.0
vertex 109.414213562373 39.4142135623731 18.0
endloop
endfacet
facet normal 0.0 0.0 1.0
outer loop
vertex 109.414213562373 39.4142135623731 18.0
vertex 110.0 0.0 18.0
vertex 109.732050807569 39.0 18.0
endloop
endfacet
facet normal 0.0 0.0 1.0
outer loop
vertex 109.732050807569 39.0 18.0
vertex 110.0 0.0 18.0
vertex 109.931851652578 38.517638090205 18.0
endloop
endfacet
facet normal 0.0 0.0 1.0
outer loop
vertex 109.931851652578 38.517638090205 18.0
vertex 110.0 0.0 18.0
vertex 110.0 38.0 18.0
endloop
endfacet
facet normal 0.0 0.0 1.0
outer loop
vertex 1.5 0.0 18.0
vertex 0.0 38.0 18.0
vertex 0.0 0.0 18.0
endloop
endfacet
facet normal 0.0 0.0 1.0
outer loop
vertex 0.0 38.0 18.0
vertex 1.5 0.0 18.0
vertex 0.0681483474218632 38.517638090205 18.0
endloop
endfacet
facet normal 0.0 0.0 1.0
outer loop
vertex 0.0681483474218632 38.517638090205 18.0
vertex 1.5 0.0 18.0
vertex 0.267949192431122 39.0 18.0
endloop
endfacet
facet normal 0.0 0.0 1.0
outer loop
vertex 0.267949192431122 39.0 18.0
vertex 1.5 0.0 18.0
vertex 0.585786437626904 39.4142135623731 18.0
endloop
endfacet
facet normal 0.0 0.0 1.0
outer loop
vertex 0.585786437626904 39.4142135623731 18.0
vertex 1.5 0.0 18.0
vertex 0.999999999999999 39.7320508075689 18.0
endloop
endfacet
facet normal 0.0 0.0 1.0
outer loop
vertex 0.999999999999999 39.7320508075689 18.0
vertex 1.5 0.0 18.0
vertex 1.48236190979496 39.9318516525781 18.0
endloop
endfacet
facet normal 0.0 0.0 1.0
outer loop
vertex 1.48236190979496 39.9318516525781 18.0
vertex 1.5 0.0 18.0
vertex 1.5 38.0 18.0
endloop
endfacet
facet normal 0.0 0.0 1.0
outer loop
vertex 1.48236190979496 39.9318516525781 18.0
vertex 1.5 38.0 18.0
vertex 1.51703708685547 38.1294095225513 18.0
endloop
endfacet
facet normal 0.0 0.0 1.0
outer loop
vertex 1.48236190979496 39.9318516525781 18.0
vertex 1.51703708685547 38.1294095225513 18.0
vertex 2.0 40.0 18.0
endloop
endfacet
facet normal 0.0 0.0 1.0
outer loop
vertex 2.0 40.0 18.0
vertex 1.51703708685547 38.1294095225513 18.0
vertex 1.56698729810778 38.25 18.0
endloop
endfacet
facet normal 0.0 0.0 1.0
outer loop
vertex 2.0 40.0 18.0
vertex 1.56698729810778 38.25 18.0
vertex 1.64644660940673 38.3535533905933 18.0
endloop
endfacet
facet normal 0.0 0.0 1.0
outer loop
vertex 2.0 40.0 18.0
vertex 1.64644660940673 38.3535533905933 18.0
vertex 1.75 38.4330127018922 18.0
endloop
endfacet
facet normal 0.0 0.0 1.0
outer loop
vertex 2.0 40.0 18.0
vertex 1.75 38.4330127018922 18.0
vertex 1.87059047744874 38.4829629131445 18.0
endloop
endfacet
facet normal 0.0 0.0 1.0
outer loop
vertex 2.0 40.0 18.0
vertex 1.87059047744874 38.4829629131445 18.0
vertex 2.0 38.5 18.0
endloop
endfacet
facet normal 0.0 0.0 1.0
outer loop
vertex 2.0 40.0 18.0
vertex 2.0 38.5 18.0
vertex 108.0 38.5 18.0
endloop
endfacet
facet normal 0.0 0.0 1.0
outer loop
vertex 2.0 40.0 18.0
vertex 108.0 38.5 18.0
vertex 108.0 40.0 18.0
endloop
endfacet
facet normal 0.0 0.0 1.0
outer loop
vertex 108.0 40.0 18.0
vertex 108.0 38.5 18.0
vertex 108.129409522551 38.4829629131445 18.0
endloop
endfacet
facet normal 0.0 0.0 1.0
outer loop
vertex 108.0 40.0 18.0
vertex 108.129409522551 38.4829629131445 18.0
vertex 108.517638090205 39.9318516525781 18.0
endloop
endfacet
facet normal 0.0 0.0 1.0
outer loop
vertex 108.517638090205 39.9318516525781 18.0
vertex 108.129409522551 38.4829629131445 18.0
vertex 108.25 38.4330127018922 18.0
endloop
endfacet
facet normal 0.0 0.0 1.0
outer loop
vertex 108.517638090205 39.9318516525781 18.0
vertex 108.25 38.4330127018922 18.0
vertex 108.353553390593 38.3535533905933 18.0
endloop
endfacet
facet normal 0.0 0.0 1.0
outer loop
vertex 108.517638090205 39.9318516525781 18.0
vertex 108.353553390593 38.3535533905933 18.0
vertex 108.433012701892 38.25 18.0
endloop
endfacet
facet normal 0.0 0.0 1.0
outer loop
vertex 108.517638090205 39.9318516525781 18.0
vertex 108.433012701892 38.25 18.0
vertex 108.482962913145 38.1294095225513 18.0
endloop
endfacet
facet normal 0.0 0.0 1.0
outer loop
vertex 108.517638090205 39.9318516525781 18.0
vertex 108.482962913145 38.1294095225513 18.0
vertex 108.5 38.0 18.0
endloop
endfacet
facet normal 1.0 -0.0 0.0
outer loop
vertex 1.5 38.0 2.0
vertex 1.5 0.0 18.0
vertex 1.5 0.0 2.0
endloop
endfacet
facet normal 1.0 -0.0 0.0
outer loop
vertex 1.5 0.0 18.0
vertex 1.5 38.0 2.0
vertex 1.5 38.0 18.0
endloop
endfacet
facet normal 0.991444861373811 -0.130526192220051 0.0
outer loop
vertex 1.51703708685547 38.1294095225513 2.0
vertex 1.5 38.0 18.0
vertex 1.5 38.0 2.0
endloop
endfacet
facet normal 0.991444861373811 -0.130526192220051 0.0
outer loop
vertex 1.5 38.0 18.0
vertex 1.51703708685547 38.1294095225513 2.0
vertex 1.51703708685547 38.1294095225513 18.0
endloop
endfacet
facet normal 0.923879532511286 -0.382683432365092 0.0
outer loop
vertex 1.56698729810778 38.25 2.0
vertex 1.51703708685547 38.1294095225513 18.0
vertex 1.51703708685547 38.1294095225513 2.0
endloop
endfacet
facet normal 0.923879532511286 -0.382683432365092 0.0
outer loop
vertex 1.51703708685547 38.1294095225513 18.0
vertex 1.56698729810778 38.25 2.0
vertex 1.56698729810778 38.25 18.0
endloop
endfacet
facet normal 0.793353340291241 -0.608761429008714 0.0
outer loop
vertex 1.64644660940673 38.3535533905933 2.0
vertex 1.56698729810778 38.25 18.0
vertex 1.56698729810778 38.25 2.0
endloop
endfacet
facet normal 0.793353340291241 -0.608761429008714 0.0
outer loop
vertex 1.56698729810778 38.25 18.0
vertex 1.64644660940673 38.3535533905933 2.0
vertex 1.64644660940673 38.3535533905933 18.0
endloop
endfacet
facet normal 0.608761429008706 -0.793353340291247 0.0
outer loop
vertex 1.75 38.4330127018922 18.0
vertex 1.64644660940673 38.3535533905933 2.0
vertex 1.75 38.4330127018922 2.0
endloop
endfacet
facet normal 0.608761429008706 -0.793353340291247 0.0
outer loop
vertex 1.64644660940673 38.3535533905933 2.0
vertex 1.75 38.4330127018922 18.0
vertex 1.64644660940673 38.3535533905933 18.0
endloop
endfacet
facet normal 0.382683432365083 -0.92387953251129 0.0
outer loop
vertex 1.87059047744874 38.4829629131445 18.0
vertex 1.75 38.4330127018922 2.0
vertex 1.87059047744874 38.4829629131445 2.0
endloop
endfacet
facet normal 0.382683432365083 -0.92387953251129 0.0
outer loop
vertex 1.75 38.4330127018922 2.0
vertex 1.87059047744874 38.4829629131445 18.0
vertex 1.75 38.4330127018922 18.0
endloop
endfacet
facet normal 0.130526192220073 -0.991444861373808 0.0
outer loop
vertex 2.0 38.5 18.0
vertex 1.87059047744874 38.4829629131445 2.0
vertex 2.0 38.5 2.0
endloop
endfacet
facet normal 0.130526192220073 -0.991444861373808 0.0
outer loop
vertex 1.87059047744874 38.4829629131445 2.0
vertex 2.0 38.5 18.0
vertex 1.87059047744874 38.4829629131445 18.0
endloop
endfacet
facet normal 0.0 -1.0 0.0
outer loop
vertex 108.0 38.5 2.0
vertex 32.0 38.5 2.5
vertex 2.0 38.5 2.0
endloop
endfacet
facet normal 0.0 -1.0 0.0
outer loop
vertex 32.0 38.5 2.5
vertex 108.0 38.5 2.0
vertex 108.0 38.5 18.0
endloop
endfacet
facet normal 0.0 -1.0 0.0
outer loop
vertex 32.0 38.5 2.5
vertex 108.0 38.5 18.0
vertex 32.0 38.5 15.5
endloop
endfacet
facet normal 0.0 -1.0 0.0
outer loop
vertex 32.0 38.5 15.5
vertex 108.0 38.5 18.0
vertex 12.0 38.5 15.5
endloop
endfacet
facet normal 0.0 -1.0 0.0
outer loop
vertex 2.0 38.5 2.0
vertex 12.0 38.5 2.5
vertex 2.0 38.5 18.0
endloop
endfacet
facet normal 0.0 -1.0 0.0
outer loop
vertex 12.0 38.5 2.5
vertex 2.0 38.5 2.0
vertex 32.0 38.5 2.5
endloop
endfacet
facet normal 0.0 -1.0 0.0
outer loop
vertex 2.0 38.5 18.0
vertex 12.0 38.5 2.5
vertex 12.0 38.5 15.5
endloop
endfacet
facet normal 0.0 -1.0 0.0
outer loop
vertex 2.0 38.5 18.0
vertex 12.0 38.5 15.5
vertex 108.0 38.5 18.0
endloop
endfacet
facet normal -0.130526192220024 -0.991444861373814 -0.0
outer loop
vertex 108.129409522551 38.4829629131445 18.0
vertex 108.0 38.5 2.0
vertex 108.129409522551 38.4829629131445 2.0
endloop
endfacet
facet normal -0.130526192220024 -0.991444861373814 -0.0
outer loop
vertex 108.0 38.5 2.0
vertex 108.129409522551 38.4829629131445 18.0
vertex 108.0 38.5 18.0
endloop
endfacet
facet normal -0.382683432365169 -0.923879532511254 -0.0
outer loop
vertex 108.25 38.4330127018922 18.0
vertex 108.129409522551 38.4829629131445 2.0
vertex 108.25 38.4330127018922 2.0
endloop
endfacet
facet normal -0.382683432365169 -0.923879532511254 -0.0
outer loop
vertex 108.129409522551 38.4829629131445 2.0
vertex 108.25 38.4330127018922 18.0
vertex 108.129409522551 38.4829629131445 18.0
endloop
endfacet
facet normal -0.608761429008657 -0.793353340291284 -0.0
outer loop
vertex 108.353553390593 38.3535533905933 18.0
vertex 108.25 38.4330127018922 2.0
vertex 108.353553390593 38.3535533905933 2.0
endloop
endfacet
facet normal -0.608761429008657 -0.793353340291284 -0.0
outer loop
vertex 108.25 38.4330127018922 2.0
vertex 108.353553390593 38.3535533905933 18.0
vertex 108.25 38.4330127018922 18.0
endloop
endfacet
facet normal -0.793353340291252 -0.608761429008699 -0.0
outer loop
vertex 108.353553390593 38.3535533905933 18.0
vertex 108.433012701892 38.25 2.0
vertex 108.433012701892 38.25 18.0
endloop
endfacet
facet normal -0.793353340291252 -0.608761429008699 -0.0
outer loop
vertex 108.433012701892 38.25 2.0
vertex 108.353553390593 38.3535533905933 18.0
vertex 108.353553390593 38.3535533905933 2.0
endloop
endfacet
facet normal -0.923879532511258 -0.38268343236516 -0.0
outer loop
vertex 108.433012701892 38.25 18.0
vertex 108.482962913145 38.1294095225513 2.0
vertex 108.482962913145 38.1294095225513 18.0
endloop
endfacet
facet normal -0.923879532511258 -0.38268343236516 -0.0
outer loop
vertex 108.482962913145 38.1294095225513 2.0
vertex 108.433012701892 38.25 18.0
vertex 108.433012701892 38.25 2.0
endloop
endfacet
facet normal -0.991444861373819 -0.130526192219987 -0.0
outer loop
vertex 108.482962913145 38.1294095225513 18.0
vertex 108.5 38.0 2.0
vertex 108.5 38.0 18.0
endloop
endfacet
facet normal -0.991444861373819 -0.130526192219987 -0.0
outer loop
vertex 108.5 38.0 2.0
vertex 108.482962913145 38.1294095225513 18.0
vertex 108.482962913145 38.1294095225513 2.0
endloop
endfacet
facet normal -1.0 -0.0 -0.0
outer loop
vertex 108.5 38.0 18.0
vertex 108.5 0.0 2.0
vertex 108.5 0.0 18.0
endloop
endfacet
facet normal -1.0 -0.0 -0.0
outer loop
vertex 108.5 0.0 2.0
vertex 108.5 38.0 18.0
vertex 108.5 38.0 2.0
endloop
endfacet
facet normal 0.0 0.0 1.0
outer loop
vertex 32.0 38.5 2.5
vertex 12.0 40.0 2.5
vertex 12.0 38.5 2.5
endloop
endfacet
facet normal 0.0 0.0 1.0
outer loop
vertex 12.0 40.0 2.5
vertex 32.0 38.5 2.5
vertex 32.0 40.0 2.5
endloop
endfacet
facet normal 1.0 -0.0 -0.0
outer loop
vertex 12.0 40.0 2.5
vertex 12.0 38.5 15.5
vertex 12.0 38.5 2.5
endloop
endfacet
facet normal 1.0 -0.0 -0.0
outer loop
vertex 12.0 38.5 15.5
vertex 12.0 40.0 2.5
vertex 12.0 40.0 15.5
endloop
endfacet
facet normal 0.0 -0.0 -1.0
outer loop
vertex 32.0 40.0 15.5
vertex 12.0 38.5 15.5
vertex 12.0 40.0 15.5
endloop
endfacet
facet normal 0.0 -0.0 -1.0
outer loop
vertex 12.0 38.5 15.5
vertex 32.0 40.0 15.5
vertex 32.0 38.5 15.5
endloop
endfacet
facet normal -1.0 -0.0 -0.0
outer loop
vertex 32.0 40.0 15.5
vertex 32.0 38.5 2.5
vertex 32.0 38.5 15.5
endloop
endfacet
facet normal -1.0 -0.0 -0.0
outer loop
vertex 32.0 38.5 2.5
vertex 32.0 40.0 15.5
vertex 32.0 40.0 2.5
endloop
endfacet
facet normal 9.39988827515968e-015 1.0 1.41422591903104e-015
outer loop
vertex 110.0 26.0 12.5
vertex 110.6 26.0 9.4
vertex 110.0 26.0 8.8
endloop
endfacet
facet normal 9.39988827515968e-015 1.0 1.41422591903104e-015
outer loop
vertex 110.6 26.0 9.4
vertex 110.0 26.0 12.5
vertex 110.6 26.0 11.9
endloop
endfacet
facet normal 0.0 -1.0 0.0
outer loop
vertex 0.0 4.0 12.5
vertex -0.6 4.0 9.4
vertex 0.0 4.0 8.8
endloop
endfacet
facet normal 0.0 -1.0 0.0
outer loop
vertex -0.6 4.0 9.4
vertex 0.0 4.0 12.5
vertex -0.599999999999999 4.0 11.9
endloop
endfacet
facet normal 0.0 -1.0 0.0
outer loop
vertex 110.6 4.0 9.4
vertex 110.0 4.0 12.5
vertex 110.0 4.0 8.8
endloop
endfacet
facet normal 0.0 -1.0 0.0
outer loop
vertex 110.0 4.0 12.5
vertex 110.6 4.0 9.4
vertex 110.6 4.0 11.9
endloop
endfacet
facet normal 0.707106781186548 1.16178973081542e-032 -0.707106781186547
outer loop
vertex 110.0 26.0 8.8
vertex 110.6 4.0 9.4
vertex 110.0 4.0 8.8
endloop
endfacet
facet normal 0.707106781186548 1.16178973081542e-032 -0.707106781186547
outer loop
vertex 110.6 4.0 9.4
vertex 110.0 26.0 8.8
vertex 110.6 26.0 9.4
endloop
endfacet
facet normal 1.0 -0.0 -0.0
outer loop
vertex 110.6 26.0 9.4
vertex 110.6 4.0 11.9
vertex 110.6 4.0 9.4
endloop
endfacet
facet normal 1.0 -0.0 -0.0
outer loop
vertex 110.6 4.0 11.9
vertex 110.6 26.0 9.4
vertex 110.6 26.0 11.9
endloop
endfacet
facet normal 0.707106781186548 1.14370767628918e-032 0.707106781186547
outer loop
vertex 110.6 26.0 11.9
vertex 110.0 4.0 12.5
vertex 110.6 4.0 11.9
endloop
endfacet
facet normal 0.707106781186548 1.14370767628918e-032 0.707106781186547
outer loop
vertex 110.0 4.0 12.5
vertex 110.6 26.0 11.9
vertex 110.0 26.0 12.5
endloop
endfacet
facet normal -0.0 1.0 -0.0
outer loop
vertex -0.6 26.0 9.4
vertex 0.0 26.0 12.5
vertex 0.0 26.0 8.8
endloop
endfacet
facet normal -0.0 1.0 -0.0
outer loop
vertex 0.0 26.0 12.5
vertex -0.6 26.0 9.4
vertex -0.599999999999999 26.0 11.9
endloop
endfacet
facet normal -0.707106781186547 -2.28910316196764e-017 -0.707106781186548
outer loop
vertex 0.0 26.0 8.8
vertex -0.6 4.0 9.4
vertex -0.6 26.0 9.4
endloop
endfacet
facet normal -0.707106781186547 -2.28910316196764e-017 -0.707106781186548
outer loop
vertex -0.6 4.0 9.4
vertex 0.0 26.0 8.8
vertex 0.0 4.0 8.8
endloop
endfacet
facet normal -1.0 4.56451158692831e-033 1.40998324127395e-016
outer loop
vertex -0.599999999999999 26.0 11.9
vertex -0.6 4.0 9.4
vertex -0.599999999999999 4.0 11.9
endloop
endfacet
facet normal -1.0 4.56451158692831e-033 1.40998324127395e-016
outer loop
vertex -0.6 4.0 9.4
vertex -0.599999999999999 26.0 11.9
vertex -0.6 26.0 9.4
endloop
endfacet
facet normal -0.707106781186549 0.0 0.707106781186546
outer loop
vertex 0.0 26.0 12.5
vertex -0.599999999999999 4.0 11.9
vertex 0.0 4.0 12.5
endloop
endfacet
facet normal -0.707106781186549 0.0 0.707106781186546
outer loop
vertex -0.599999999999999 4.0 11.9
vertex 0.0 26.0 12.5
vertex -0.599999999999999 26.0 11.9
endloop
endfacet
endsolid Vision Belt Power Supply Cover - Final
